<svg width="24" height="21" viewBox="0 0 24 21" fill="none" xmlns="http://www.w3.org/2000/svg">
<path d="M15 2.5C6.60001 0.899998 2.16667 6.83333 1.00001 10C0.500006 13.5 6.50001 18 12 18.5C17.5 19 22.5 15 22.5 10C22.5 6 17.5 3.33333 15 2.5Z" fill="white"/>
<path fill-rule="evenodd" clip-rule="evenodd" d="M1.99679 0.336028C2.44591 -0.112009 3.17289 -0.112009 3.622 0.336028L22.0034 18.7174C22.4514 19.1665 22.4514 19.8935 22.0034 20.3426C21.5543 20.7907 20.8273 20.7907 20.3782 20.3426L1.99679 1.96123C1.54876 1.51212 1.54876 0.785141 1.99679 0.336028Z" fill="#727272"/>
<path fill-rule="evenodd" clip-rule="evenodd" d="M5.36357 3.02948C3.03077 4.47268 1.20192 6.65266 0.203557 9.24493C-0.0678522 9.9493 -0.0678522 10.7291 0.203557 11.4334C2.02695 16.168 6.61946 19.5293 12 19.5293C14.7831 19.5293 17.3539 18.63 19.441 17.107L17.7921 15.4581C16.14 16.5782 14.1452 17.232 11.9999 17.232C7.60142 17.232 3.84038 14.4845 2.34766 10.6074C2.28088 10.435 2.28088 10.2433 2.34766 10.071C3.2308 7.77589 4.90881 5.8771 7.04337 4.70972L5.36357 3.02948ZM9.10503 6.77094C8.06787 7.61317 7.40442 8.89913 7.40442 10.339C7.40442 12.8764 9.46258 14.9346 12 14.9346C13.44 14.9346 14.726 14.2712 15.5681 13.234L13.9256 11.5926C13.5164 12.2205 12.8066 12.6363 11.9999 12.6363C10.7312 12.6363 9.70267 11.6077 9.70267 10.339C9.70267 9.53231 10.1184 8.82257 10.7463 8.41329L9.10503 6.77094ZM16.5527 10.9693L11.37 5.78663C11.5757 5.75863 11.7858 5.74355 12.0001 5.74355C14.5375 5.74355 16.5957 7.80171 16.5957 10.3392C16.5957 10.5535 16.5807 10.7635 16.5527 10.9693ZM19.5455 13.9621C20.4481 12.9982 21.1686 11.862 21.6522 10.6072C21.719 10.4349 21.719 10.2432 21.6522 10.0709C20.1594 6.19378 16.3984 3.44628 11.9999 3.44628C11.0898 3.44628 10.2078 3.56367 9.3677 3.78447L7.54109 1.95786C8.92719 1.43444 10.4298 1.14902 12 1.14902C17.3808 1.14902 21.9731 4.51026 23.7964 9.24485C24.0679 9.94922 24.0679 10.729 23.7964 11.4333C23.1965 12.9896 22.2983 14.3984 21.1707 15.5873L19.5455 13.9621Z" fill="#727272"/>
</svg>
