<svg width="25" height="20" viewBox="0 0 25 20" fill="none" xmlns="http://www.w3.org/2000/svg">
<path fill-rule="evenodd" clip-rule="evenodd" d="M1.75768 11.7367C1.24663 10.9427 1.24663 9.94616 1.75768 9.15214C3.2803 6.78639 7.04826 2 12.6111 2C18.174 2 21.9419 6.78639 23.4645 9.15214C23.9756 9.94617 23.9756 10.9427 23.4645 11.7368C21.9419 14.1025 18.174 18.8889 12.6111 18.8889C7.04825 18.8889 3.2803 14.1025 1.75768 11.7367Z" fill="#E8E8E8" stroke="#727272" stroke-width="2.2" stroke-linecap="round" stroke-linejoin="round"/>
<path d="M12.612 13.6126C14.3609 13.6126 15.7786 12.1949 15.7786 10.446C15.7786 8.69706 14.3609 7.2793 12.612 7.2793C10.8631 7.2793 9.44531 8.69706 9.44531 10.446C9.44531 12.1949 10.8631 13.6126 12.612 13.6126Z" stroke="#727272" stroke-width="1.81" stroke-linecap="round" stroke-linejoin="round"/>
</svg>
