<?xml version="1.0" standalone="no"?>
<!DOCTYPE svg PUBLIC "-//W3C//DTD SVG 20010904//EN"
 "http://www.w3.org/TR/2001/REC-SVG-20010904/DTD/svg10.dtd">
<svg version="1.0" xmlns="http://www.w3.org/2000/svg"
 width="465.000000pt" height="469.000000pt" viewBox="0 0 465.000000 469.000000"
 preserveAspectRatio="xMidYMid meet">

<g transform="translate(0.000000,469.000000) scale(0.100000,-0.100000)"
fill="#000000" stroke="none">
<path d="M0 4660 l0 -30 918 -1 c787 -1 907 -3 847 -14 -38 -7 -263 -49 -499
-94 -458 -85 -466 -87 -499 -152 -16 -32 -17 -74 -12 -644 3 -335 9 -639 13
-675 l6 -65 7 105 c4 58 7 360 8 672 1 342 5 577 11 592 5 15 24 33 42 41 18
8 286 64 596 125 l563 111 355 -2 354 -1 354 -357 c439 -443 570 -581 550
-581 -4 0 -22 11 -40 25 l-32 25 -2 -307 c0 -193 -5 -312 -11 -318 -11 -11
-2167 -20 -2307 -10 l-83 7 2 76 c1 43 6 82 11 89 7 9 5 18 -6 28 -20 20 -21
29 -1 22 12 -5 12 -1 4 20 -8 21 -13 254 -7 323 1 8 0 145 0 304 l-2 289 -62
-5 c-35 -3 -75 -11 -90 -18 l-27 -13 -3 -576 c-2 -317 -2 -651 0 -742 l3 -166
637 -4 c350 -2 682 -3 737 -3 479 3 1304 5 1316 2 12 -3 14 59 17 407 1 226 4
416 7 424 4 11 8 11 20 1 13 -11 15 -102 15 -690 0 -643 -1 -681 -20 -756 -35
-139 -133 -312 -259 -454 l-31 -35 -187 -1 c-351 -3 -763 -70 -1238 -202 -183
-51 -191 -70 -13 -32 54 12 105 19 111 16 7 -2 2 -5 -9 -5 -12 -1 -44 -8 -70
-16 -27 -8 -82 -24 -121 -35 -67 -19 -73 -23 -74 -48 -1 -15 -3 -91 -4 -168
l-2 -142 35 -6 c19 -3 67 -1 106 4 151 19 158 19 71 1 -49 -11 -114 -25 -142
-31 -51 -11 -73 -30 -35 -30 10 0 74 -31 141 -70 163 -93 318 -170 343 -170
61 0 560 292 716 418 81 66 33 43 -140 -66 -322 -204 -553 -328 -591 -316 -19
5 -169 84 -334 176 -24 12 -41 28 -40 33 2 6 32 13 67 17 l63 7 122 -64 c67
-36 130 -65 141 -65 27 0 273 136 501 277 59 36 79 43 150 51 49 5 89 4 99 -1
10 -6 20 -5 27 2 14 14 50 15 42 1 -3 -5 -48 -39 -100 -75 -52 -37 -97 -70
-99 -74 -3 -4 80 -16 185 -26 206 -19 402 -17 474 7 l40 13 8 165 c4 91 6 195
5 232 -4 65 -5 70 -48 113 -33 34 -42 49 -35 59 6 8 42 56 82 108 134 174 218
380 224 545 1 34 6 60 10 58 10 -7 37 115 44 200 7 86 -9 59 -19 -32 -4 -35
-13 -80 -21 -100 -12 -33 -14 55 -15 672 -1 391 -1 853 0 1027 l1 318 -26 24
c-15 14 -39 27 -53 30 -15 3 -170 33 -344 68 -174 34 -320 59 -324 55 -18 -18
30 -32 292 -83 154 -30 303 -59 332 -65 95 -19 92 -10 92 -314 0 -146 -4 -265
-9 -265 -5 0 -27 17 -50 39 l-41 38 -2 204 -3 203 -225 42 c-123 24 -226 41
-229 38 -16 -16 48 -36 227 -70 l203 -38 -1 -177 c-1 -131 2 -182 12 -198 7
-11 16 -21 20 -21 4 0 13 -10 19 -22 10 -18 5 -17 -27 9 -38 31 -506 501 -636
639 l-67 71 -98 21 -98 20 908 1 907 1 0 30 0 30 -2325 0 -2325 0 0 -30z
m3798 -1193 l42 -43 0 -296 c0 -322 -3 -358 -30 -358 -26 0 -31 -68 -28 -360
2 -225 0 -251 -19 -320 -31 -105 -46 -147 -82 -218 -17 -33 -28 -68 -25 -77 6
-14 -27 -75 -62 -115 -79 -91 -76 -89 -123 -76 l-43 11 49 60 c86 104 142 190
187 286 77 164 76 153 76 893 0 361 4 656 8 656 4 0 27 -19 50 -43z m-304
-415 l49 -7 -1 -42 c0 -24 -1 -47 -1 -53 -1 -5 -12 -10 -25 -10 -41 0 -74 -18
-79 -42 -4 -20 -4 -20 -6 5 -1 17 -7 27 -17 27 -11 0 -14 -8 -12 -32 3 -29 6
-33 33 -33 23 0 31 5 33 23 4 30 22 28 22 -2 0 -46 32 -39 42 9 3 11 6 -4 9
-34 7 -94 112 -85 -1027 -82 -642 1 -1055 -1 -1134 -8 -165 -14 -231 -1 -241
45 -3 19 -1 38 7 49 7 9 10 23 7 31 -3 8 0 14 6 14 6 0 11 -11 11 -25 0 -16 6
-25 15 -25 9 0 16 10 17 25 0 14 1 31 2 38 1 6 -15 14 -34 17 -21 3 -34 11
-32 18 1 7 3 30 4 52 1 36 4 39 32 43 54 7 2269 6 2320 -1z m-189 -1446 c11
-2 -38 -3 -110 -3 -94 0 -112 2 -65 6 61 6 129 4 175 -3z m-392 -23 c-7 -2
-19 -2 -25 0 -7 3 -2 5 12 5 14 0 19 -2 13 -5z m-66 -9 c-3 -3 -12 -4 -19 -1
-8 3 -5 6 6 6 11 1 17 -2 13 -5z m-54 -11 c-7 -2 -21 -2 -30 0 -10 3 -4 5 12
5 17 0 24 -2 18 -5z m-66 -9 c-3 -3 -12 -4 -19 -1 -8 3 -5 6 6 6 11 1 17 -2
13 -5z m-50 -10 c-3 -3 -12 -4 -19 -1 -8 3 -5 6 6 6 11 1 17 -2 13 -5z m-97
-14 c-14 -4 -34 -8 -45 -8 -16 0 -15 2 5 8 14 4 34 8 45 8 16 0 15 -2 -5 -8z
m-90 -20 c-14 -4 -34 -8 -45 -8 l-20 -1 20 9 c11 5 31 8 45 8 l25 0 -25 -8z
m-77 -17 c-7 -2 -19 -2 -25 0 -7 3 -2 5 12 5 14 0 19 -2 13 -5z m-48 -8 c-24
-10 -198 -45 -202 -42 -2 3 31 12 74 22 43 9 83 19 88 20 15 5 52 4 40 0z
m877 -262 c-40 -2 -103 -2 -140 0 -37 2 -4 3 73 3 77 0 107 -2 67 -3z m-255
-9 c-3 -3 -12 -4 -19 -1 -8 3 -5 6 6 6 11 1 17 -2 13 -5z m-174 -31 c-7 -2
-19 -2 -25 0 -7 3 -2 5 12 5 14 0 19 -2 13 -5z m-100 -20 c-7 -2 -21 -2 -30 0
-10 3 -4 5 12 5 17 0 24 -2 18 -5z m-63 -13 c-8 -5 -24 -9 -35 -9 -16 1 -16 2
5 9 35 11 48 11 30 0z m-113 -26 c-3 -3 -12 -4 -19 -1 -8 3 -5 6 6 6 11 1 17
-2 13 -5z m178 -32 c-79 -50 -298 -174 -357 -203 l-47 -23 -96 51 c-53 27 -96
54 -96 59 0 5 17 13 38 17 49 11 154 37 328 80 179 45 223 55 260 56 28 1 25
-2 -30 -37z m-315 -3 c-116 -29 -125 -31 -118 -24 8 9 147 43 173 43 11 0 -14
-8 -55 -19z m-155 -39 c-11 -5 -31 -8 -45 -8 l-25 0 25 8 c14 4 34 8 45 8 l20
1 -20 -9z m-118 -26 c-3 -3 -12 -4 -19 -1 -8 3 -5 6 6 6 11 1 17 -2 13 -5z"/>
<path d="M3625 1780 c-3 -5 -1 -10 4 -10 6 0 11 5 11 10 0 6 -2 10 -4 10 -3 0
-8 -4 -11 -10z"/>
<path d="M1418 2927 c-10 -11 -19 -12 -25 -6 -6 6 -21 9 -34 7 -19 -2 -24 -9
-24 -33 0 -24 5 -31 24 -33 15 -3 30 3 38 14 12 16 13 16 13 1 0 -13 9 -17 40
-17 39 0 40 1 40 33 0 41 -7 49 -31 37 -12 -7 -19 -6 -21 1 -3 8 -9 6 -20 -4z
m-38 -33 c0 -8 -7 -14 -15 -14 -15 0 -21 21 -9 33 10 9 24 -2 24 -19z"/>
<path d="M1507 2934 c-10 -11 -9 -74 2 -74 5 0 11 4 13 9 2 4 13 12 26 15 16
6 22 3 22 -9 0 -12 8 -16 32 -13 28 2 34 8 39 33 6 31 10 27 25 -23 5 -19 24
-5 24 18 0 10 5 22 11 26 20 12 -15 24 -54 17 -31 -5 -37 -10 -38 -32 l-1 -26
-11 28 c-6 15 -18 27 -26 27 -9 0 -25 3 -36 6 -11 3 -24 2 -28 -2z"/>
<path d="M1725 2932 c-3 -3 -5 -20 -5 -39 0 -33 1 -33 45 -33 28 0 45 4 45 12
0 9 3 9 12 0 19 -19 25 -14 26 23 1 21 -3 35 -11 36 -75 5 -107 6 -112 1z m52
-44 c-3 -7 -5 -2 -5 12 0 14 2 19 5 13 2 -7 2 -19 0 -25z"/>
<path d="M2496 2927 c-29 -21 -14 -67 21 -67 14 0 32 8 39 18 13 16 13 16 14
0 0 -21 25 -24 34 -5 5 10 7 10 12 0 3 -7 12 -13 20 -13 8 0 14 6 14 13 0 6 3
22 6 33 5 20 2 21 -53 21 -32 0 -65 3 -73 7 -9 3 -24 0 -34 -7z m34 -32 c0 -8
-4 -15 -9 -15 -13 0 -22 16 -14 24 11 11 23 6 23 -9z"/>
<path d="M2743 2933 c-7 -3 -13 -16 -13 -29 0 -17 -6 -24 -20 -24 -15 0 -20 7
-20 25 0 14 -4 25 -10 25 -5 0 -10 -16 -10 -35 l0 -35 94 0 c55 0 98 4 101 10
5 7 11 8 18 1 7 -5 40 -9 75 -10 l62 0 0 35 c0 38 -17 51 -47 36 -12 -7 -25
-7 -36 0 -13 7 -25 5 -41 -6 -16 -10 -26 -12 -34 -4 -11 11 -97 19 -119 11z
m57 -40 c0 -14 -3 -23 -7 -19 -10 10 -11 46 -1 46 4 0 8 -12 8 -27z m45 8 c3
-5 1 -12 -5 -16 -5 -3 -10 1 -10 9 0 18 6 21 15 7z"/>
<path d="M3189 2933 c-12 -3 -17 -15 -17 -39 0 -31 3 -34 29 -34 26 0 29 3 29
34 0 34 -12 45 -41 39z"/>
<path d="M1254 2916 c-11 -29 1 -51 29 -54 15 -2 27 1 27 7 0 6 -9 11 -21 11
-14 0 -19 5 -17 18 2 10 11 16 21 14 9 -2 17 2 17 8 0 16 -50 12 -56 -4z"/>
<path d="M1896 2908 c-11 -42 -7 -48 29 -48 35 0 49 20 24 35 -6 4 -8 13 -5
21 4 10 -2 14 -18 14 -16 0 -26 -7 -30 -22z"/>
<path d="M1994 2914 c3 -9 6 -22 6 -30 0 -20 30 -30 41 -13 6 10 9 10 9 2 0
-24 26 -13 37 15 l11 27 1 -27 1 -28 95 0 c57 0 95 4 95 10 0 6 -7 10 -15 10
-9 0 -15 9 -15 25 0 14 -4 25 -10 25 -5 0 -10 -10 -10 -23 0 -30 -6 -36 -31
-30 -12 3 -19 14 -19 29 0 13 -4 24 -10 24 -5 0 -10 -13 -10 -30 0 -16 -5 -30
-11 -30 -6 0 -9 7 -6 15 4 8 1 17 -5 21 -7 4 -6 9 3 15 9 6 -3 8 -33 7 -27 -1
-48 -6 -48 -12 0 -8 -2 -8 -8 0 -4 6 -22 11 -40 12 -26 1 -32 -3 -28 -14z"/>
<path d="M2330 2893 c0 -18 5 -33 10 -33 6 0 10 5 10 11 0 8 4 8 14 0 14 -12
42 -11 64 2 7 5 12 4 12 -2 0 -6 7 -11 15 -11 10 0 15 11 15 35 0 19 -4 35
-10 35 -5 0 -10 -5 -10 -11 0 -8 -4 -8 -15 1 -18 15 -35 5 -35 -21 0 -11 -5
-17 -10 -14 -6 4 -8 15 -5 25 5 16 1 19 -25 18 -27 -1 -30 -4 -30 -35z"/>
<path d="M3060 2895 l0 -35 50 1 c50 2 50 2 50 35 0 19 -4 34 -10 34 -5 0 -10
-5 -10 -12 0 -9 -3 -9 -12 0 -7 7 -25 12 -40 12 -25 0 -28 -3 -28 -35z"/>
<path d="M3248 2918 c7 -7 12 -22 12 -35 0 -13 5 -23 10 -23 6 0 10 9 10 19 0
11 3 26 6 35 5 12 0 16 -22 16 -22 0 -25 -3 -16 -12z"/>
<path d="M3310 2895 c0 -19 5 -35 10 -35 6 0 10 14 10 31 0 39 23 34 31 -7 6
-30 12 -23 22 24 5 20 1 22 -34 22 -38 0 -39 -1 -39 -35z"/>
<path d="M1945 4504 c-170 -35 -281 -61 -245 -58 36 3 97 11 135 19 39 7 160
30 270 50 223 41 192 42 460 -10 66 -12 150 -29 187 -36 37 -7 71 -10 74 -6 9
9 -19 34 -33 30 -6 -2 -109 14 -229 37 -120 22 -239 40 -264 39 -25 0 -184
-29 -355 -65z"/>
<path d="M1590 4435 c-8 -2 -49 -8 -90 -15 -198 -30 -596 -104 -607 -113 -17
-13 -19 -1994 -2 -2113 21 -150 95 -309 217 -462 63 -80 236 -256 303 -309 67
-52 64 -66 -8 -57 -32 4 -68 10 -80 15 -39 15 -143 119 -268 270 -46 55 -124
184 -116 192 5 5 -7 46 -25 92 -68 166 -74 207 -74 514 0 152 -3 286 -6 298
-3 11 -14 23 -23 26 -19 5 -31 44 -32 106 0 31 -1 33 -9 14 -13 -31 -14 -695
-1 -765 19 -108 70 -235 142 -350 47 -77 123 -181 155 -212 16 -17 11 -36 -10
-36 -17 0 -46 -33 -46 -53 0 -9 -8 -21 -17 -26 -13 -8 -15 -13 -7 -18 8 -5 14
-73 19 -193 4 -105 12 -191 18 -198 17 -22 98 -59 163 -76 123 -32 401 -50
439 -29 12 7 -34 12 -141 16 -88 3 -170 10 -184 15 -18 8 13 9 105 5 72 -3
156 -3 187 1 l57 7 3 147 c2 81 -1 150 -6 153 -4 4 -2 10 5 14 26 16 -26 24
-181 25 -85 1 -166 5 -180 10 -14 4 36 5 110 3 97 -3 151 0 190 10 l55 15 -67
1 c-74 1 -77 3 -197 116 -215 202 -329 349 -402 516 -71 164 -69 121 -69 1267
l0 1028 223 43 c252 49 489 99 496 106 4 5 -13 5 -39 0z"/>
<path d="M2307 4327 c-24 -17 -11 -57 18 -57 21 0 35 17 35 40 0 18 -37 30
-53 17z"/>
<path d="M2166 4312 c-9 -11 -13 -27 -9 -40 6 -26 4 -25 37 -12 31 11 34 40 7
57 -15 10 -22 9 -35 -5z"/>
<path d="M2453 4303 c-20 -7 -15 -40 6 -46 25 -6 48 38 25 47 -9 3 -16 6 -17
5 -1 0 -8 -3 -14 -6z"/>
<path d="M2025 4280 c-14 -15 -14 -21 -3 -39 7 -12 19 -19 26 -16 8 3 18 5 23
5 5 0 9 13 9 29 0 36 -31 47 -55 21z"/>
<path d="M2577 4293 c-12 -3 -16 -12 -14 -30 5 -35 39 -48 60 -22 16 18 16 20
0 39 -10 11 -20 19 -23 19 -3 -1 -13 -3 -23 -6z"/>
<path d="M3542 4201 c3 -66 5 -70 61 -140 32 -39 62 -69 68 -66 5 4 9 64 9
135 0 145 3 140 -87 140 l-55 0 4 -69z"/>
<path d="M1285 3779 c-36 -11 -53 -24 -83 -63 -25 -33 -31 -126 -9 -152 30
-37 51 -53 102 -79 81 -40 105 -67 105 -113 0 -48 -24 -72 -72 -72 -43 0 -72
29 -88 88 -9 36 -15 43 -33 40 -20 -3 -23 -11 -29 -78 -4 -45 -3 -79 3 -85 13
-13 205 -19 248 -8 22 6 44 23 65 52 26 36 31 52 31 100 -1 84 -24 118 -115
163 -98 50 -115 67 -111 120 3 49 81 65 118 26 12 -13 25 -39 30 -58 7 -28 14
-35 34 -35 23 0 24 2 24 75 0 71 -1 74 -25 81 -36 10 -160 9 -195 -2z"/>
<path d="M1730 3783 c-38 -15 -74 -49 -89 -84 -15 -33 -17 -50 -12 -111 2 -29
50 -76 110 -108 110 -59 139 -111 88 -158 -49 -46 -115 -15 -137 63 -11 38
-17 45 -34 43 -18 -3 -22 -12 -29 -78 -10 -100 1 -110 118 -110 145 0 206 39
226 144 15 84 -20 138 -127 197 -41 23 -79 49 -84 59 -27 51 10 107 63 96 40
-8 55 -23 72 -72 9 -26 20 -40 34 -42 20 -3 21 1 21 72 0 49 -4 77 -12 83 -16
9 -188 15 -208 6z"/>
<path d="M2745 3767 c-101 -48 -148 -128 -149 -257 -1 -126 33 -195 121 -245
86 -48 191 -40 310 23 51 27 56 34 39 58 -14 18 -15 18 -51 1 -20 -10 -62 -20
-93 -23 -48 -5 -64 -2 -101 18 -65 35 -91 89 -91 187 1 116 34 175 112 200 76
25 143 -13 170 -94 11 -32 18 -40 38 -40 24 0 25 2 28 77 3 74 2 78 -25 95
-21 14 -52 19 -143 21 -104 3 -120 1 -165 -21z"/>
<path d="M2066 3728 c-10 -92 -8 -108 14 -108 11 0 23 8 26 18 3 9 12 32 20
50 12 29 17 32 59 32 l45 0 0 -191 c0 -196 -6 -229 -39 -229 -22 0 -45 -25
-36 -40 4 -6 53 -9 136 -8 114 3 129 5 129 20 0 11 -12 20 -32 26 l-33 8 -3
208 -2 207 42 -3 c40 -3 44 -6 66 -50 16 -35 28 -48 44 -48 19 0 20 4 14 53
-3 28 -6 64 -6 80 l0 27 -219 0 -218 0 -7 -52z"/>
<path d="M3172 3763 c2 -9 18 -21 36 -25 l32 -9 0 -208 0 -208 -40 -16 c-25
-10 -38 -20 -35 -29 8 -19 269 -15 273 5 2 8 -12 18 -38 26 l-40 12 0 197 c0
212 3 228 50 234 14 2 26 11 28 21 3 15 -8 17 -133 17 -123 0 -136 -2 -133
-17z"/>
<path d="M3930 3671 c0 -8 -3 -12 -6 -8 -4 3 -12 0 -19 -6 -14 -14 -26 -177
-14 -177 11 0 55 45 75 76 18 27 11 120 -8 108 -6 -4 -14 0 -19 7 -7 12 -9 12
-9 0z"/>
<path d="M655 3638 c-4 -21 -4 -49 -1 -63 8 -30 71 -103 81 -93 9 9 -4 160
-15 177 -6 10 -13 10 -28 2 -15 -8 -22 -8 -25 2 -2 6 -8 -5 -12 -25z"/>
<path d="M465 3541 c9 -18 20 -51 24 -74 4 -24 13 -41 19 -39 7 1 12 -3 12 -9
0 -8 5 -8 15 1 8 7 15 9 15 4 0 -5 5 -2 10 6 6 10 10 11 10 3 0 -7 7 -13 16
-13 21 0 -30 64 -92 115 l-46 38 17 -32z"/>
<path d="M4092 3499 c-53 -52 -80 -89 -64 -89 5 0 12 3 16 7 12 12 66 12 73
-1 4 -6 12 14 19 44 6 30 15 63 19 73 13 30 -10 18 -63 -34z"/>
<path d="M2453 2542 c-11 -37 -19 -70 -16 -74 2 -5 24 -8 49 -8 41 0 46 3 59
33 28 69 29 86 4 95 -73 27 -73 27 -96 -46z"/>
<path d="M690 2545 c1 -36 38 -236 45 -243 7 -7 6 9 -15 158 -11 78 -30 132
-30 85z"/>
<path d="M225 2509 c53 -20 74 -42 158 -158 95 -132 121 -151 212 -151 42 0
70 -6 93 -20 34 -21 42 -18 17 6 -8 9 -22 40 -31 70 -36 125 -101 179 -278
229 -95 27 -228 46 -171 24z"/>
<path d="M4322 2509 c-82 -16 -215 -61 -253 -85 -52 -32 -93 -91 -119 -170
-12 -35 -26 -66 -31 -69 -5 -4 -9 -12 -9 -18 0 -8 2 -9 8 -1 14 22 52 34 106
34 100 0 131 22 231 165 73 105 88 120 141 139 l39 15 -35 -1 c-19 0 -54 -4
-78 -9z"/>
<path d="M2020 2492 c0 -9 126 -82 141 -82 23 0 5 19 -33 35 -24 11 -55 27
-70 37 -29 20 -38 22 -38 10z"/>
<path d="M2470 2389 c0 -14 -48 -57 -72 -65 -16 -5 -26 -24 -12 -24 14 0 51
25 71 49 21 24 30 51 18 51 -3 0 -5 -5 -5 -11z"/>
<path d="M2307 2370 c-16 -19 -16 -20 1 -20 11 0 18 8 19 20 1 11 1 20 0 20
-2 0 -10 -9 -20 -20z"/>
<path d="M2609 2326 c-27 -43 -39 -54 -58 -53 -13 1 -26 -4 -29 -12 -3 -10 0
-12 13 -7 11 4 25 0 36 -9 16 -15 20 -12 54 50 48 85 34 112 -16 31z"/>
<path d="M2357 2283 c22 -78 3 -150 -89 -340 -61 -126 -62 -129 -62 -213 0
-47 6 -97 12 -112 11 -27 14 -28 92 -28 73 0 97 9 70 25 -6 4 -22 30 -37 58
-43 86 -32 226 32 407 22 61 22 157 1 198 -20 39 -29 41 -19 5z"/>
<path d="M1988 2281 c-21 -9 -38 -21 -38 -27 0 -12 92 -54 116 -54 8 0 13 6
12 12 -2 7 12 20 29 28 41 19 41 26 1 38 -62 19 -83 20 -120 3z"/>
<path d="M2225 2285 c26 -21 59 -29 90 -21 40 10 29 26 -17 26 -24 0 -54 3
-68 6 -24 5 -25 5 -5 -11z"/>
<path d="M2212 2238 c-29 -8 -33 -12 -28 -33 16 -63 25 -75 55 -75 16 0 33 5
36 11 7 11 -13 97 -24 103 -3 2 -21 -1 -39 -6z"/>
<path d="M2511 2183 c-18 -19 -10 -25 12 -8 10 7 15 15 10 18 -4 3 -14 -2 -22
-10z"/>
<path d="M1907 2153 c3 -21 8 -41 12 -44 13 -12 94 -30 102 -22 16 17 -19 72
-57 88 -56 23 -64 21 -57 -22z"/>
<path d="M2630 2141 c-43 -36 -37 -43 50 -71 62 -20 65 -20 77 -3 7 10 25 30
40 45 30 29 30 28 -42 47 -63 17 -88 13 -125 -18z"/>
<path d="M2507 2135 c-19 -17 -40 -25 -66 -25 -26 0 -41 -5 -45 -16 -10 -26
-8 -27 36 -21 44 6 82 29 106 65 19 29 4 28 -31 -3z"/>
<path d="M300 2100 l-35 -7 40 -2 c53 -2 66 -11 175 -111 136 -125 126 -120
258 -117 103 2 111 3 94 17 -11 9 -27 33 -37 54 -22 47 -80 109 -120 128 -66
32 -293 55 -375 38z"/>
<path d="M4120 2100 c-162 -16 -208 -43 -288 -163 l-47 -72 103 -3 c126 -3
138 3 245 107 95 92 139 120 192 122 40 2 40 2 -10 9 -60 10 -96 10 -195 0z"/>
<path d="M2241 2091 c-1 -8 -11 -25 -23 -38 -16 -18 -18 -23 -6 -23 18 0 42
43 35 62 -4 10 -6 10 -6 -1z"/>
<path d="M2510 2075 c0 -32 118 -63 135 -35 4 6 -10 10 -34 10 -28 0 -48 7
-61 20 -24 24 -40 26 -40 5z"/>
<path d="M2094 2052 c31 -61 154 -115 164 -70 2 11 -6 18 -30 23 -55 11 -92
27 -122 54 l-28 26 16 -33z"/>
<path d="M2035 2020 c3 -5 15 -10 25 -10 10 0 22 5 25 10 4 6 -7 10 -25 10
-18 0 -29 -4 -25 -10z"/>
<path d="M2470 1970 c0 -5 7 -10 15 -10 8 0 15 5 15 10 0 6 -7 10 -15 10 -8 0
-15 -4 -15 -10z"/>
<path d="M2356 1963 c-15 -15 -3 -23 34 -23 23 0 54 -7 70 -15 17 -9 30 -11
30 -6 0 22 -118 60 -134 44z"/>
<path d="M2116 1885 c-33 -30 -55 -55 -50 -55 13 0 124 90 124 101 0 18 -16 8
-74 -46z"/>
<path d="M956 1829 c8 -13 10 -18 13 -38 0 -5 7 -11 15 -14 11 -5 11 -1 -1 24
-8 16 -19 32 -25 35 -7 5 -8 2 -2 -7z"/>
<path d="M2490 1836 c0 -2 11 -24 25 -49 24 -42 27 -44 49 -34 24 12 27 30 3
22 -7 -3 -23 11 -36 30 -20 29 -41 45 -41 31z"/>
<path d="M650 1754 c-19 -2 -78 -12 -130 -21 l-95 -17 47 -7 c32 -5 79 -28
152 -73 150 -94 173 -100 262 -70 25 8 59 16 75 16 33 1 36 -4 -41 81 -68 76
-153 104 -270 91z"/>
<path d="M3875 1755 c-5 -2 -26 -6 -46 -9 -49 -9 -64 -20 -181 -145 -20 -21
-21 -23 -4 -17 11 4 47 -3 84 -15 90 -30 130 -23 227 39 117 76 170 102 207
103 27 0 29 2 13 8 -41 17 -275 45 -300 36z"/>
<path d="M908 1433 c7 -3 16 -2 19 1 4 3 -2 6 -13 5 -11 0 -14 -3 -6 -6z"/>
<path d="M724 853 c4 -15 3 -29 -4 -33 -7 -4 -4 -15 10 -32 11 -15 20 -41 20
-61 0 -32 19 -55 34 -40 3 4 6 39 6 80 0 60 -4 77 -20 93 -30 30 -54 27 -46
-7z"/>
<path d="M3999 866 c-3 -3 -34 -7 -70 -10 -55 -3 -66 -7 -76 -28 -12 -21 -19
-148 -9 -148 3 0 17 5 32 10 25 10 26 13 22 61 -5 51 -5 51 31 67 46 20 185
21 261 3 30 -8 77 -25 105 -37 43 -21 78 -30 182 -50 21 -4 22 -9 19 -74 -2
-39 0 -70 5 -70 5 0 9 7 9 15 0 9 7 30 17 48 22 42 40 116 35 145 -3 20 -8 23
-30 17 -15 -4 -31 -13 -35 -21 -14 -24 -113 -17 -182 12 -33 14 -80 32 -104
40 -48 15 -202 30 -212 20z"/>
<path d="M430 848 c-19 -9 -21 -12 -9 -15 9 -2 32 3 50 11 31 13 32 14 9 15
-14 0 -36 -5 -50 -11z"/>
<path d="M80 796 c0 -13 6 -38 14 -56 12 -29 14 -30 19 -11 3 13 13 21 25 21
34 0 36 20 3 31 -17 6 -31 15 -31 19 0 4 -7 10 -15 14 -11 4 -15 -1 -15 -18z"/>
<path d="M386 787 c-17 -13 -18 -36 -17 -363 0 -192 1 -352 1 -356 0 -12 48
-9 55 3 4 6 -2 19 -14 30 -20 19 -21 28 -21 279 0 250 1 259 20 265 25 8 25
17 0 40 -18 16 -19 20 -5 27 9 6 15 23 15 48 0 43 -6 47 -34 27z"/>
<path d="M559 785 c-5 -69 -4 -70 27 -70 25 0 29 4 30 30 0 17 -3 36 -9 43
-13 17 -47 15 -48 -3z"/>
<path d="M4039 795 c0 -3 -1 -22 -1 -42 -1 -35 1 -38 27 -38 27 0 29 3 32 43
3 41 2 42 -27 42 -17 0 -30 -2 -31 -5z"/>
<path d="M4225 743 c-9 -65 -20 -70 -180 -76 -116 -5 -234 -21 -265 -37 -11
-5 -15 -25 -15 -76 0 -67 1 -69 25 -69 24 0 25 4 28 62 l3 61 49 12 c28 7 116
13 198 13 l147 2 3 -259 c1 -164 -1 -263 -8 -270 -5 -5 -12 -8 -14 -5 -2 2 -6
113 -8 247 -3 195 -7 245 -18 252 -21 13 -30 3 -30 -35 0 -43 -29 -65 -87 -65
l-42 0 -3 58 c-3 51 -5 57 -23 54 -27 -5 -35 -20 -35 -70 0 -36 -4 -44 -26
-52 -14 -6 -40 -10 -58 -10 -26 0 -35 -5 -40 -22 -9 -36 -7 -88 4 -88 14 0 12
-37 -2 -44 -10 -5 -10 -7 0 -12 18 -8 15 -32 -5 -37 -17 -4 -17 -5 0 -6 18 -1
25 -21 7 -21 -5 0 -10 -6 -10 -13 0 -10 -14 -13 -46 -13 -54 1 -60 -7 -65 -84
-4 -54 -3 -55 24 -58 22 -3 27 0 27 20 0 33 11 68 21 68 5 0 6 -20 3 -44 -4
-38 -2 -47 16 -56 11 -6 20 -17 20 -25 0 -13 -201 -15 -1592 -15 -1032 0
-1588 4 -1578 10 9 6 10 10 3 10 -15 0 -14 320 2 320 5 0 4 4 -4 9 -10 6 -2
10 25 14 196 29 261 41 274 53 13 13 -2 14 -105 12 -66 -1 -140 2 -165 7 -43
8 -44 9 -15 14 29 6 30 7 30 66 0 58 -1 60 -27 63 -28 3 -28 3 -28 -59 l0 -62
-50 5 c-65 7 -80 20 -80 74 0 36 -3 44 -19 44 -38 0 -40 -18 -41 -303 l-2
-277 -224 0 c-192 0 -224 -2 -224 -15 0 -13 265 -15 2325 -15 2060 0 2325 2
2325 15 0 13 -32 15 -230 15 -196 0 -230 2 -230 15 0 11 8 13 31 8 41 -8 49 6
49 94 l0 72 43 -19 c23 -10 71 -24 107 -30 36 -6 72 -15 81 -20 26 -14 59 -1
59 24 0 26 -52 216 -60 216 -3 0 -5 -42 -5 -92 l0 -93 -70 1 c-51 0 -81 6
-112 22 l-43 22 0 249 c0 231 -1 251 -19 272 l-19 24 -7 -52z"/>
<path d="M600 650 c0 -5 15 -10 33 -10 24 0 28 3 17 10 -20 13 -50 13 -50 0z"/>
<path d="M824 619 c3 -17 6 -51 6 -75 0 -37 3 -44 20 -44 18 0 20 7 20 63 0
63 -11 87 -38 87 -11 0 -13 -8 -8 -31z"/>
<path d="M2248 582 c-42 -4 -79 -10 -83 -13 -8 -9 258 -15 390 -9 95 4 103 6
62 12 -73 12 -283 17 -369 10z"/>
<path d="M3800 460 c0 -5 5 -10 11 -10 5 0 7 5 4 10 -3 6 -8 10 -11 10 -2 0
-4 -4 -4 -10z"/>
<path d="M2070 313 c0 -43 4 -83 8 -89 4 -5 29 -10 55 -10 53 1 77 20 77 63 0
35 -45 76 -75 69 -19 -5 -24 -2 -27 16 -2 13 -11 24 -20 26 -16 3 -18 -6 -18
-75z m88 -35 c-4 -37 -22 -47 -37 -19 -14 26 -4 51 21 51 16 0 19 -6 16 -32z"/>
<path d="M2230 304 c0 -83 1 -85 23 -82 12 2 21 6 20 11 -2 4 -3 41 -3 82 0
68 -2 75 -20 75 -18 0 -20 -7 -20 -86z"/>
<path d="M2510 382 c0 -4 11 -24 25 -44 17 -24 25 -51 25 -77 0 -33 4 -41 19
-41 14 0 20 10 25 38 3 20 20 55 36 76 35 46 37 56 12 56 -10 0 -29 -14 -41
-31 l-23 -31 -20 31 c-18 27 -58 44 -58 23z"/>
<path d="M2311 324 c-25 -32 -26 -52 -5 -82 24 -35 114 -27 114 11 0 5 -18 6
-40 2 -26 -4 -40 -3 -40 4 0 6 18 11 40 11 35 0 40 3 40 23 0 56 -73 76 -109
31z m64 -14 c3 -5 -3 -10 -15 -10 -12 0 -18 5 -15 10 3 6 10 10 15 10 5 0 12
-4 15 -10z"/>
<path d="M1967 329 c-9 -5 -22 -7 -27 -4 -6 3 -30 3 -55 -1 -44 -6 -45 -7 -45
-43 0 -88 37 -117 42 -33 2 34 7 47 18 47 10 0 16 -13 18 -40 2 -22 8 -44 13
-49 15 -16 33 10 33 51 1 28 6 39 19 41 14 3 17 -4 17 -38 0 -27 5 -43 15 -47
24 -8 29 3 26 55 -3 62 -31 86 -74 61z"/>
<path d="M2685 315 c-30 -29 -32 -58 -5 -85 26 -26 81 -26 103 -2 26 28 22 77
-8 96 -34 23 -62 20 -90 -9z m63 -14 c21 -13 11 -55 -14 -59 -26 -4 -38 22
-24 49 12 21 18 23 38 10z"/>
<path d="M3175 330 c-9 -14 -25 -151 -19 -161 3 -5 31 -9 63 -9 64 0 84 13 96
63 9 33 -10 83 -33 92 -33 13 -102 22 -107 15z m95 -75 c0 -51 -9 -65 -41 -65
-28 0 -29 2 -29 49 0 52 8 61 47 53 18 -3 23 -11 23 -37z"/>
<path d="M2837 324 c-4 -4 -7 -31 -7 -60 0 -61 12 -72 75 -70 l40 1 7 50 c4
28 5 56 3 63 -9 25 -29 6 -40 -39 -15 -61 -38 -59 -45 5 -5 46 -17 65 -33 50z"/>
<path d="M1707 292 c-35 -39 -6 -112 44 -112 29 0 59 18 59 35 0 18 -21 20
-37 4 -6 -6 -16 -8 -22 -5 -21 14 -10 25 27 28 31 2 36 6 34 23 -2 11 -9 26
-14 33 -16 18 -72 15 -91 -6z m63 -23 c0 -5 -9 -9 -20 -9 -22 0 -27 16 -7 23
15 5 27 -1 27 -14z"/>
<path d="M2985 266 c-8 -52 -4 -78 12 -83 8 -3 15 10 19 36 6 40 19 58 39 60
6 1 10 6 10 13 0 7 -16 13 -37 14 -36 3 -37 2 -43 -40z"/>
<path d="M1265 288 c-10 -31 -35 -137 -35 -152 0 -24 26 -19 44 9 19 29 73 35
82 10 6 -15 44 -21 44 -7 0 4 -19 39 -43 77 -29 48 -49 71 -65 73 -12 2 -24
-3 -27 -10z m49 -64 c9 -23 8 -24 -13 -24 -14 0 -18 5 -14 20 6 24 19 26 27 4z"/>
<path d="M1573 290 c-44 -18 -22 -70 28 -70 15 0 30 -4 33 -9 10 -15 -24 -21
-44 -9 -22 14 -35 6 -27 -17 9 -22 79 -20 100 3 10 10 17 21 17 25 0 14 -34
37 -56 37 -13 0 -24 5 -24 11 0 7 10 9 24 5 28 -7 46 12 25 25 -18 11 -47 10
-76 -1z"/>
<path d="M1428 269 c-22 -13 -23 -55 -2 -63 9 -3 27 -6 40 -6 13 0 24 -5 24
-11 0 -7 -12 -9 -33 -5 -38 7 -52 -1 -36 -21 25 -29 109 -9 109 27 0 22 -43
55 -59 46 -5 -4 -13 -1 -16 5 -5 7 1 10 16 9 46 -4 53 -1 39 15 -14 17 -57 19
-82 4z"/>
<path d="M976 258 c-2 -7 -8 -29 -13 -48 l-10 -35 -13 43 c-11 37 -17 42 -42
42 -29 0 -31 -2 -43 -55 l-7 -30 -12 34 c-15 41 -40 61 -57 44 -8 -8 -4 -32
17 -93 26 -74 30 -81 53 -78 19 2 27 11 33 38 16 65 19 67 38 20 14 -36 23
-45 41 -45 22 0 25 7 41 80 9 43 14 83 12 87 -8 13 -34 9 -38 -4z"/>
<path d="M3346 262 c-2 -4 -7 -33 -10 -64 -7 -54 -6 -58 12 -58 16 0 22 9 27
40 5 31 11 40 26 40 17 0 38 25 28 34 -9 7 -79 14 -83 8z"/>
<path d="M3450 230 c-39 -39 -20 -102 36 -116 25 -7 69 21 59 37 -3 4 -1 10 5
14 32 19 -11 85 -55 85 -14 0 -34 -9 -45 -20z m62 -32 c-12 -12 -35 -1 -27 12
3 5 13 6 21 3 10 -4 12 -9 6 -15z m-2 -38 c0 -5 -6 -10 -14 -10 -8 0 -18 5
-21 10 -3 6 3 10 14 10 12 0 21 -4 21 -10z"/>
<path d="M80 221 c-13 -25 -13 -58 1 -66 12 -8 79 22 79 34 0 5 -11 12 -25 15
-14 4 -25 13 -25 21 0 21 -17 19 -30 -4z"/>
<path d="M3601 228 c-12 -4 -21 -15 -21 -24 0 -12 7 -15 30 -12 17 3 30 1 30
-4 0 -4 -11 -8 -24 -8 -23 0 -56 -23 -56 -39 0 -23 29 -40 75 -43 l50 -3 9 52
c6 37 5 57 -3 67 -14 17 -62 25 -90 14z m39 -88 c0 -5 -7 -10 -16 -10 -8 0
-12 5 -9 10 3 6 10 10 16 10 5 0 9 -4 9 -10z"/>
<path d="M1040 210 c-11 -11 -20 -31 -20 -45 0 -54 77 -86 115 -49 23 23 5 38
-29 23 -14 -7 -29 -9 -33 -5 -11 11 18 26 50 26 31 0 34 15 11 48 -19 28 -67
29 -94 2z m60 -20 c0 -5 -7 -10 -15 -10 -8 0 -15 5 -15 10 0 6 7 10 15 10 8 0
15 -4 15 -10z"/>
</g>
</svg>
